
<svg xmlns="http://www.w3.org/2000/svg" xmlns:xlink="http://www.w3.org/1999/xlink" >
	<!-- HTML 5 Logo from: https://upload.wikimedia.org/wikipedia/commons/6/61/HTML5_logo_and_wordmark.svg -->
	<symbol xmlns="http://www.w3.org/2000/svg" viewBox="0 0 512 512" id="icon-html">
		<title>HTML5 Logo</title>
		<path d="M108.4 0h23v22.8h21.2V0h23v69h-23V46h-21v23h-23.2M206 23h-20.3V0h63.7v23H229v46h-23M259.5 0h24.1l14.8 24.3L313.2 0h24.1v69h-23V34.8l-16.1 24.8l-16.1-24.8v34.2h-22.6M348.7 0h23v46.2h32.6V69h-55.6"/>
		<path fill="#e44d26" d="M107.6 471l-33-370.4h362.8l-33 370.2L255.7 512"/>
		<path fill="#f16529" d="M256 480.5V131H404.3L376 447"/>
		<path fill="#ebebeb" d="M142 176.3h114v45.4h-64.2l4.2 46.5h60v45.3H154.4M156.4 336.3H202l3.2 36.3 50.8 13.6v47.4l-93.2-26"/>
		<path fill="#fff" d="M369.6 176.3H255.8v45.4h109.6M361.3 268.2H255.8v45.4h56l-5.3 59-50.7 13.6v47.2l93-25.8"/>
	</symbol>

	<!-- JavaScript Logo from: https://upload.wikimedia.org/wikipedia/commons/9/99/Unofficial_JavaScript_logo_2.svg -->
	<symbol xmlns="http://www.w3.org/2000/svg" viewBox="0 0 630 630" id="icon-javascript">
	<rect width="630" height="630" fill="#f7df1e"/>
	<path d="m423.2 492.19c12.69 20.72 29.2 35.95 58.4 35.95 24.53 0 40.2-12.26 40.2-29.2 0-20.3-16.1-27.49-43.1-39.3l-14.8-6.35c-42.72-18.2-71.1-41-71.1-89.2 0-44.4 33.83-78.2 86.7-78.2 37.64 0 64.7 13.1 84.2 47.4l-46.1 29.6c-10.15-18.2-21.1-25.37-38.1-25.37-17.34 0-28.33 11-28.33 25.37 0 17.76 11 24.95 36.4 35.95l14.8 6.34c50.3 21.57 78.7 43.56 78.7 93 0 53.3-41.87 82.5-98.1 82.5-54.98 0-90.5-26.2-107.88-60.54zm-209.13 5.13c9.3 16.5 17.76 30.45 38.1 30.45 19.45 0 31.72-7.61 31.72-37.2v-201.3h59.2v202.1c0 61.3-35.94 89.2-88.4 89.2-47.4 0-74.85-24.53-88.81-54.075z"/>
	</symbol>

	<!-- SASS Logo from: https://upload.wikimedia.org/wikipedia/commons/9/96/Sass_Logo_Color.svg -->
	<symbol xmlns="http://www.w3.org/2000/svg" xmlns:xlink="http://www.w3.org/1999/xlink" x="0px" y="0px"
		 viewBox="0 0 547.8 410.6" enable-background="new 0 0 547.8 410.6" xml:space="preserve"
		 id="icon-sass">
	<path fill="#CD6799" d="M471.4,236c-19.1,0.1-35.7,4.7-49.6,11.5c-5.1-10.1-10.2-19.1-11.1-25.7c-1-7.7-2.2-12.4-1-21.6
		c1.2-9.2,6.6-22.3,6.5-23.3s-1.2-5.7-12.2-5.8c-11-0.1-20.5,2.1-21.6,5c-1.1,2.9-3.2,9.5-4.6,16.3c-1.9,10-22,45.7-33.5,64.4
		c-3.7-7.3-6.9-13.7-7.6-18.8c-1-7.7-2.2-12.4-1-21.6c1.2-9.2,6.6-22.3,6.5-23.3c-0.1-1-1.2-5.7-12.2-5.8c-11-0.1-20.5,2.1-21.6,5
		c-1.1,2.9-2.3,9.7-4.6,16.3c-2.3,6.6-29,66.2-36,81.6c-3.6,7.9-6.7,14.2-8.9,18.5c0,0,0,0,0,0s-0.1,0.3-0.4,0.8
		c-1.9,3.7-3,5.7-3,5.7s0,0,0,0.1c-1.5,2.7-3.1,5.2-3.9,5.2c-0.6,0-1.7-7.2,0.2-17c4-20.7,13.5-52.9,13.4-54c0-0.6,1.8-6.2-6.2-9.1
		c-7.8-2.9-10.6,1.9-11.3,1.9c-0.7,0-1.2,1.7-1.2,1.7s8.7-36.2-16.6-36.2c-15.8,0-37.6,17.3-48.4,32.9c-6.8,3.7-21.3,11.6-36.8,20.1
		c-5.9,3.3-12,6.6-17.7,9.7c-0.4-0.4-0.8-0.9-1.2-1.3c-30.6-32.7-87.2-55.8-84.8-99.7c0.9-16,6.4-58,108.7-109
		C233.9,19,300.9,30.5,312.5,56c16.6,36.4-35.9,104-122.9,113.8c-33.2,3.7-50.6-9.1-55-13.9c-4.6-5-5.3-5.3-7-4.3c-2.8,1.5-1,6,0,8.6
		c2.6,6.8,13.3,18.8,31.4,24.7c16,5.2,54.9,8.1,102-10.1c52.7-20.4,93.9-77.1,81.8-124.6C330.7,2,250.7-13.9,175,13
		C130,29,81.2,54.2,46.1,87c-41.7,39-48.3,72.9-45.6,87.1c9.7,50.4,79.2,83.2,107,107.5c-1.4,0.8-2.7,1.5-3.8,2.1
		c-13.9,6.9-66.9,34.6-80.1,63.9c-15,33.2,2.4,57,13.9,60.2c35.7,9.9,72.4-7.9,92.1-37.3c19.7-29.4,17.3-67.6,8.2-85.1
		c-0.1-0.2-0.2-0.4-0.4-0.6c3.6-2.1,7.3-4.3,10.9-6.4c7.1-4.2,14.1-8.1,20.1-11.3c-3.4,9.3-5.9,20.4-7.1,36.4
		c-1.5,18.8,6.2,43.2,16.3,52.8c4.5,4.2,9.8,4.3,13.2,4.3c11.8,0,17.1-9.8,23-21.4c7.2-14.2,13.7-30.7,13.7-30.7s-8.1,44.6,13.9,44.6
		c8,0,16.1-10.4,19.7-15.7c0,0.1,0,0.1,0,0.1s0.2-0.3,0.6-1c0.8-1.3,1.3-2.1,1.3-2.1s0-0.1,0-0.2c3.2-5.6,10.4-18.3,21.1-39.4
		c13.8-27.2,27.1-61.2,27.1-61.2s1.2,8.3,5.3,22.1c2.4,8.1,7.4,17,11.4,25.6c-3.2,4.5-5.2,7-5.2,7s0,0,0.1,0.1
		c-2.6,3.4-5.4,7.1-8.5,10.7c-10.9,13-23.9,27.9-25.7,32.2c-2.1,5.1-1.6,8.8,2.4,11.8c2.9,2.2,8.1,2.5,13.4,2.2
		c9.8-0.7,16.7-3.1,20.1-4.6c5.3-1.9,11.5-4.8,17.3-9.1c10.7-7.9,17.2-19.2,16.6-34.1c-0.3-8.2-3-16.4-6.3-24.1
		c1-1.4,1.9-2.8,2.9-4.2c16.9-24.7,30-51.8,30-51.8s1.2,8.3,5.3,22.1c2,7,6.1,14.6,9.7,22c-15.9,12.9-25.7,27.9-29.2,37.7
		c-6.3,18.2-1.4,26.4,7.9,28.3c4.2,0.9,10.2-1.1,14.6-3c5.6-1.8,12.2-4.9,18.5-9.5c10.7-7.9,21-18.9,20.4-33.8
		c-0.3-6.8-2.1-13.5-4.6-20c13.5-5.6,30.9-8.7,53.1-6.1c47.6,5.6,57,35.3,55.2,47.8c-1.8,12.5-11.8,19.3-15.1,21.4
		c-3.3,2.1-4.4,2.8-4.1,4.3c0.4,2.2,2,2.1,4.8,1.7c3.9-0.7,25-10.1,25.9-33.1C548.9,267.8,520.9,235.7,471.4,236z M104.2,359.8
		C88.4,377,66.4,383.5,56.9,378c-10.2-5.9-6.2-31.3,13.2-49.5c11.8-11.1,27-21.4,37.1-27.7c2.3-1.4,5.7-3.4,9.8-5.9
		c0.7-0.4,1.1-0.6,1.1-0.6l0,0c0.8-0.5,1.6-1,2.4-1.5C127.6,318.8,120.8,341.7,104.2,359.8z M219.2,281.6c-5.5,13.4-17,47.7-24,45.8
		c-6-1.6-9.7-27.6-1.2-53.3c4.3-12.9,13.4-28.3,18.7-34.3c8.6-9.6,18.1-12.8,20.4-8.9C236,236,222.6,273.2,219.2,281.6z M314.1,327
		c-2.3,1.2-4.5,2-5.5,1.4c-0.7-0.4,1-2,1-2s11.9-12.8,16.6-18.6c2.7-3.4,5.9-7.4,9.3-11.9c0,0.4,0,0.9,0,1.3
		C335.5,312.5,320.7,322.8,314.1,327z M387.3,310.3c-1.7-1.2-1.4-5.2,4.3-17.7c2.2-4.9,7.4-13.1,16.3-21c1,3.2,1.7,6.3,1.6,9.2
		C409.4,300.1,395.6,307.3,387.3,310.3z"/>
	</symbol>

	<!-- CSS Logo from: https://www.flaticon.com/free-icons/css-logo -->
	<symbol version="1.1" id="icon-css" xmlns="http://www.w3.org/2000/svg" xmlns:xlink="http://www.w3.org/1999/xlink" x="0px" y="0px"
	 viewBox="0 0 512 512" style="enable-background:new 0 0 512 512;" xml:space="preserve">
		<path style="fill:#2196F3;" d="M434.582,110.165c-2.02-2.227-4.887-3.497-7.893-3.499H85.355
			c-5.891-0.026-10.688,4.728-10.714,10.619c-0.002,0.351,0.014,0.701,0.047,1.05l32,341.333c0.413,4.379,3.471,8.055,7.701,9.259
			l149.333,42.667c0.964,0.274,1.963,0.41,2.965,0.405c1.144-0.001,2.282-0.181,3.371-0.533l128-42.667
			c4.015-1.336,6.86-4.918,7.253-9.131l32-341.333C437.592,115.35,436.6,112.384,434.582,110.165z"/>
		<g>
			<path style="fill:#FAFAFA;" d="M266.689,426.667c-0.989-0.006-1.973-0.15-2.923-0.427l-74.667-21.333
				c-3.665-1.043-6.495-3.963-7.424-7.659l-10.667-42.667c-1.558-5.681,1.785-11.55,7.466-13.108
				c5.681-1.558,11.55,1.785,13.108,7.466c0.044,0.159,0.083,0.318,0.119,0.479l9.173,36.693l65.813,18.816l64.853-18.539
				l19.2-173.035h-190.72c-5.891,0-10.667-4.776-10.667-10.667c0-5.891,4.776-10.667,10.667-10.667h202.667
				c5.891-0.036,10.695,4.711,10.731,10.602c0.002,0.414-0.019,0.827-0.065,1.238l-21.333,192c-0.484,4.3-3.518,7.882-7.68,9.067
				l-74.667,21.333C268.704,426.537,267.698,426.674,266.689,426.667z"/>
			<path style="fill:#FAFAFA;" d="M352.022,298.667H170.689c-5.891,0-10.667-4.776-10.667-10.667s4.776-10.667,10.667-10.667h181.333
				c5.891,0,10.667,4.776,10.667,10.667S357.913,298.667,352.022,298.667z"/>
		</g>
		<g>
			<path style="fill:#37474F;" d="M192.022,64h-42.667c-5.891,0-10.667-4.776-10.667-10.667V10.667C138.689,4.776,143.464,0,149.355,0
				h42.667c5.891,0,10.667,4.776,10.667,10.667s-4.776,10.667-10.667,10.667h-32v21.333h32c5.891,0,10.667,4.776,10.667,10.667
				S197.913,64,192.022,64z"/>
			<path style="fill:#37474F;" d="M277.355,64h-42.667c-5.891,0-10.667-4.776-10.667-10.667s4.776-10.667,10.667-10.667h16.917
				l-24.469-24.448c-4.171-4.16-4.179-10.914-0.019-15.085c2.006-2.011,4.731-3.139,7.571-3.134h42.667
				c5.891,0,10.667,4.776,10.667,10.667s-4.776,10.667-10.667,10.667h-16.917l24.448,24.448c4.171,4.16,4.179,10.914,0.019,15.085
				C282.904,62.872,280.188,63.999,277.355,64z"/>
			<path style="fill:#37474F;" d="M362.689,64h-42.667c-5.891,0-10.667-4.776-10.667-10.667s4.776-10.667,10.667-10.667h16.917
				L312.47,18.219c-4.171-4.16-4.179-10.914-0.019-15.085c2.006-2.011,4.731-3.139,7.571-3.134h42.667
				c5.891,0,10.667,4.776,10.667,10.667s-4.776,10.667-10.667,10.667h-16.917l24.448,24.448c4.171,4.16,4.179,10.914,0.019,15.085
				C368.238,62.872,365.521,63.999,362.689,64z"/>
		</g>
		
		</symbol>




</svg>